# xmcd
#
# Track frame offsets:
#	150
#	14619
#	25742
#	38322
#	51230
#	63388
#	76721
#	86316
#	98896
#	109363
#	120774
#	131529
#	143549
#	154944
#	169461
#	182988
#	197238
#
# Disc length: 2778 seconds
#
# Revision: 1
# Processed by: cddbd v1.5.2PL0 Copyright (c) Steve Scherf et al.
# Submitted via: audiograbber 1.83.01
#
DISCID=d70ad811
DTITLE=Chartbusters - CB5076-1
DYEAR=1900
DGENRE=
TTITLE0=Lynn, Loretta - Coal Miner's Daughter
TTITLE1=Lynn, Loretta - They Don't Make 'Em Like My Daddy
TTITLE2=Lynn, Loretta - Amazing Grace
TTITLE3=Lynn, Loretta - Blue Kentucky Girl
TTITLE4=Lynn, Loretta - Out Of My Head And Back In My Bed
TTITLE5=Lynn, Loretta - One's On The Way
TTITLE6=Lynn, Loretta - Don't Come Home A Drinkin'
TTITLE7=Lynn, Loretta - Before I'm Over You
TTITLE8=Lynn, Loretta - Happy Birthday
TTITLE9=Lynn, Loretta - I'm A Honky Tonk Girl
TTITLE10=Lynn, Loretta - You Ain't Woman Enough To Take My Man
TTITLE11=Lynn, Loretta - Lead Me On
TTITLE12=Lynn, Loretta - Louisiana Woman Mississippi Man
TTITLE13=Lynn, Loretta - Somebody Somewhere Don't Know What He's Missing Tonigh
TTITLE13=t
TTITLE14=Lynn, Loretta - Here I Am Again
TTITLE15=Lynn, Loretta - Just A Closer Walk With Thee
TTITLE16=Lynn, Loretta - Wings Of A Dove
EXTD=
EXTT0=
EXTT1=
EXTT2=
EXTT3=
EXTT4=
EXTT5=
EXTT6=
EXTT7=
EXTT8=
EXTT9=
EXTT10=
EXTT11=
EXTT12=
EXTT13=
EXTT14=
EXTT15=
EXTT16=
PLAYORDER=
